# WaveFront *.obj file (generated by Autodesk ATF)

mtllib 0 coping.mtl

g Solid1

v -0.046985 -0.017101 0.000000
v -0.046985 -0.017101 10.000000
v -0.046985 0.017101 0.000000
v -0.046985 0.017101 10.000000
v -0.025000 -0.043301 0.000000
v -0.025000 -0.043301 10.000000
v -0.025000 0.043301 0.000000
v -0.025000 0.043301 10.000000
v 0.008682 -0.049240 0.000000
v 0.008682 -0.049240 10.000000
v 0.008682 0.049240 0.000000
v 0.008682 0.049240 10.000000
v 0.038302 -0.032139 0.000000
v 0.038302 -0.032139 10.000000
v 0.038302 0.032139 0.000000
v 0.038302 0.032139 10.000000
v 0.050000 0.000000 0.000000
v 0.050000 0.000000 10.000000
vt -1.000000 0.000000 0.000000
vt -1.000000 -0.003491 0.000000
vt -1.000000 -0.006981 0.000000
vt -1.000000 -0.010472 0.000000
vt -1.000000 -0.013963 0.000000
vt -1.000000 0.013963 0.000000
vt -1.000000 0.010472 0.000000
vt -1.000000 0.006981 0.000000
vt -1.000000 0.003491 0.000000
vt -0.000000 0.000000 0.000000
vt -0.000000 0.003491 0.000000
vt -0.000000 0.006981 0.000000
vt -0.000000 0.010472 0.000000
vt -0.000000 -0.017453 0.000000
vt -0.000000 -0.013963 0.000000
vt -0.000000 -0.010472 0.000000
vt -0.000000 -0.006981 0.000000
vt -0.000000 -0.003491 0.000000
vt -0.000000 0.013963 0.000000
vt -0.000000 0.013963 0.000000
vt -1.000000 -0.017453 0.000000
vt -1.000000 -0.017453 0.000000
vt 0.005000 0.000000 0.000000
vt 0.003830 0.003214 0.000000
vt 0.000868 0.004924 0.000000
vt -0.002500 0.004330 0.000000
vt -0.004698 0.001710 0.000000
vt -0.004698 -0.001710 0.000000
vt -0.002500 -0.004330 0.000000
vt 0.000868 -0.004924 0.000000
vt 0.003830 -0.003214 0.000000
vt -0.005000 0.000000 0.000000
vt -0.003830 -0.003214 0.000000
vt -0.000868 -0.004924 0.000000
vt 0.002500 -0.004330 0.000000
vt 0.004698 -0.001710 0.000000
vt 0.004698 0.001710 0.000000
vt 0.002500 0.004330 0.000000
vt -0.000868 0.004924 0.000000
vt -0.003830 0.003214 0.000000
vn 0.100000 0.000000 0.000000
vn 0.076604 -0.064279 0.000000
vn 0.017365 -0.098481 0.000000
vn -0.050000 -0.086603 0.000000
vn -0.093969 -0.034202 0.000000
vn -0.093969 0.034202 0.000000
vn -0.050000 0.086603 0.000000
vn 0.017365 0.098481 0.000000
vn 0.076604 0.064279 0.000000
vn 0.100000 0.000000 0.000000
vn 0.076604 0.064279 0.000000
vn 0.017365 0.098481 0.000000
vn -0.050000 0.086603 0.000000
vn -0.093969 0.034202 0.000000
vn -0.093969 -0.034202 0.000000
vn -0.050000 -0.086603 0.000000
vn 0.017365 -0.098481 0.000000
vn 0.076604 -0.064279 0.000000
vn -0.093969 0.034202 0.000000
vn -0.093969 0.034202 0.000000
vn -0.093969 0.034202 0.000000
vn -0.093969 0.034202 0.000000
vn 0.000000 0.000000 0.100000
vn 0.000000 0.000000 0.100000
vn 0.000000 0.000000 0.100000
vn 0.000000 0.000000 0.100000
vn 0.000000 0.000000 0.100000
vn 0.000000 0.000000 0.100000
vn 0.000000 0.000000 0.100000
vn 0.000000 0.000000 0.100000
vn 0.000000 0.000000 0.100000
vn 0.000000 0.000000 -0.100000
vn 0.000000 0.000000 -0.100000
vn 0.000000 0.000000 -0.100000
vn 0.000000 0.000000 -0.100000
vn 0.000000 0.000000 -0.100000
vn 0.000000 0.000000 -0.100000
vn 0.000000 0.000000 -0.100000
vn 0.000000 0.000000 -0.100000
vn 0.000000 0.000000 -0.100000
usemtl 191,191,191
f 14/2/2 17/10/10 18/1/1
f 18/1/1 17/10/10 15/11/11
f 18/1/1 15/11/11 16/9/9
f 16/9/9 15/11/11 11/12/12
f 16/9/9 11/12/12 12/8/8
f 12/8/8 11/12/12 7/13/13
f 12/8/8 7/13/13 8/7/7
f 8/7/7 7/13/13 3/19/19
f 8/7/7 3/20/20 4/6/6
f 4/21/21 3/14/14 1/15/15
f 4/22/22 1/15/15 2/5/5
f 2/5/5 1/15/15 5/16/16
f 2/5/5 5/16/16 6/4/4
f 6/4/4 5/16/16 9/17/17
f 6/4/4 9/17/17 10/3/3
f 10/3/3 9/17/17 13/18/18
f 10/3/3 13/18/18 14/2/2
f 14/2/2 13/18/18 17/10/10
f 18/23/23 16/24/24 14/31/31
f 14/31/31 16/24/24 10/30/30
f 10/30/30 16/24/24 12/25/25
f 10/30/30 12/25/25 6/29/29
f 6/29/29 12/25/25 8/26/26
f 6/29/29 8/26/26 2/28/28
f 2/28/28 8/26/26 4/27/27
f 17/32/32 13/33/33 15/40/40
f 15/40/40 13/33/33 9/34/34
f 15/40/40 9/34/34 11/39/39
f 11/39/39 9/34/34 5/35/35
f 11/39/39 5/35/35 7/38/38
f 7/38/38 5/35/35 1/36/36
f 7/38/38 1/36/36 3/37/37

# 18 vertices
# 40 texture params
# 40 normals
# 32 facets

# 1 groups
