# WaveFront *.obj file (generated by Autodesk ATF)

mtllib 7 quarter 6mil.mtl

g Solid1

v -5.951528 0.000000 0.000000
v -5.951528 0.000000 10.000000
v -5.312028 0.114035 0.000000
v -5.312028 0.114035 10.000000
v -4.686108 0.287783 0.000000
v -4.686108 0.287783 10.000000
v -4.079331 0.519699 0.000000
v -4.079331 0.519699 10.000000
v -3.497088 0.807723 0.000000
v -3.497088 0.807723 10.000000
v -2.944555 1.149295 0.000000
v -2.944555 1.149295 10.000000
v -2.426642 1.541379 0.000000
v -2.426642 1.541379 10.000000
v -1.947951 1.980490 0.000000
v -1.947951 1.980490 10.000000
v -1.512737 2.462727 0.000000
v -1.512737 2.462727 10.000000
v -1.124867 2.983804 0.000000
v -1.124867 2.983804 10.000000
v -0.787788 3.539090 0.000000
v -0.787788 3.539090 10.000000
v -0.504496 4.123649 0.000000
v -0.504496 4.123649 10.000000
v -0.277509 4.732288 0.000000
v -0.277509 4.732288 10.000000
v -0.108844 5.359596 0.000000
v -0.108844 5.359596 10.000000
v 0.000000 6.000000 0.000000
v 0.000000 6.000000 10.000000
v 5.000000 0.000000 0.000000
v 5.000000 0.000000 10.000000
v 5.000000 6.000000 0.000000
v 5.000000 6.000000 10.000000
vt 0.000000 -1.254997 0.000000
vt 0.000000 -1.319980 0.000000
vt 0.000000 -1.384962 0.000000
vt 0.000000 -1.449945 0.000000
vt 0.000000 -1.514928 0.000000
vt 0.000000 -1.579911 0.000000
vt 0.000000 -1.644894 0.000000
vt 0.000000 -1.709877 0.000000
vt 0.000000 -1.774860 0.000000
vt 0.000000 -1.839842 0.000000
vt 0.000000 -1.904825 0.000000
vt 0.000000 -1.969808 0.000000
vt 0.000000 -2.034791 0.000000
vt 0.000000 -2.099773 0.000000
vt 0.000000 -2.164757 0.000000
vt 1.000000 -2.164757 0.000000
vt 1.000000 -2.099773 0.000000
vt 1.000000 -2.034791 0.000000
vt 1.000000 -1.969808 0.000000
vt 1.000000 -1.904825 0.000000
vt 1.000000 -1.839842 0.000000
vt 1.000000 -1.774860 0.000000
vt 1.000000 -1.709877 0.000000
vt 1.000000 -1.644894 0.000000
vt 1.000000 -1.579911 0.000000
vt 1.000000 -1.514928 0.000000
vt 1.000000 -1.449945 0.000000
vt 1.000000 -1.384962 0.000000
vt 1.000000 -1.319980 0.000000
vt 1.000000 -1.254997 0.000000
vt 0.000000 0.000000 0.000000
vt 0.500000 0.000000 0.000000
vt 0.500000 1.000000 0.000000
vt 0.000000 1.000000 0.000000
vt 0.000000 0.000000 0.000000
vt 0.600000 0.000000 0.000000
vt 0.600000 1.000000 0.000000
vt 0.000000 1.000000 0.000000
vt 0.000000 0.000000 0.000000
vt 1.095153 0.000000 0.000000
vt 1.095153 1.000000 0.000000
vt 0.000000 1.000000 0.000000
vt -0.547576 -0.300000 0.000000
vt 0.547576 -0.300000 0.000000
vt 0.547576 0.300000 0.000000
vt 0.047576 0.300000 0.000000
vt 0.036692 0.235960 0.000000
vt 0.019825 0.173229 0.000000
vt -0.002873 0.112365 0.000000
vt -0.031202 0.053909 0.000000
vt -0.064910 -0.001620 0.000000
vt -0.103697 -0.053727 0.000000
vt -0.147219 -0.101951 0.000000
vt -0.195088 -0.145862 0.000000
vt -0.246879 -0.185070 0.000000
vt -0.302132 -0.219228 0.000000
vt -0.360357 -0.248030 0.000000
vt -0.421034 -0.271222 0.000000
vt -0.483626 -0.288596 0.000000
vt -0.547576 -0.300000 0.000000
vt 0.547576 -0.300000 0.000000
vt 0.483626 -0.288596 0.000000
vt 0.421034 -0.271222 0.000000
vt 0.360357 -0.248030 0.000000
vt 0.302132 -0.219228 0.000000
vt 0.246879 -0.185070 0.000000
vt 0.195088 -0.145862 0.000000
vt 0.147219 -0.101951 0.000000
vt 0.103697 -0.053727 0.000000
vt 0.064910 -0.001620 0.000000
vt 0.031202 0.053909 0.000000
vt 0.002873 0.112365 0.000000
vt -0.019825 0.173229 0.000000
vt -0.036692 0.235960 0.000000
vt -0.047576 0.300000 0.000000
vt -0.547576 0.300000 0.000000
vn -0.099266 0.012090 0.000000
vn -0.097687 0.021384 0.000000
vn -0.095239 0.030488 0.000000
vn -0.091945 0.039321 0.000000
vn -0.087834 0.047804 0.000000
vn -0.082942 0.055863 0.000000
vn -0.077313 0.063425 0.000000
vn -0.070997 0.070423 0.000000
vn -0.064050 0.076796 0.000000
vn -0.056534 0.082486 0.000000
vn -0.048515 0.087443 0.000000
vn -0.040065 0.091623 0.000000
vn -0.031260 0.094989 0.000000
vn -0.022176 0.097510 0.000000
vn -0.012895 0.099165 0.000000
vn -0.012895 0.099165 0.000000
vn -0.022176 0.097510 0.000000
vn -0.031260 0.094989 0.000000
vn -0.040065 0.091623 0.000000
vn -0.048515 0.087443 0.000000
vn -0.056534 0.082486 0.000000
vn -0.064050 0.076796 0.000000
vn -0.070997 0.070423 0.000000
vn -0.077313 0.063425 0.000000
vn -0.082942 0.055863 0.000000
vn -0.087834 0.047804 0.000000
vn -0.091945 0.039321 0.000000
vn -0.095239 0.030488 0.000000
vn -0.097687 0.021384 0.000000
vn -0.099266 0.012090 0.000000
vn 0.000000 0.100000 0.000000
vn 0.000000 0.100000 0.000000
vn 0.000000 0.100000 0.000000
vn 0.000000 0.100000 0.000000
vn 0.100000 0.000000 0.000000
vn 0.100000 0.000000 0.000000
vn 0.100000 0.000000 0.000000
vn 0.100000 0.000000 0.000000
vn 0.000000 -0.100000 0.000000
vn 0.000000 -0.100000 0.000000
vn 0.000000 -0.100000 0.000000
vn 0.000000 -0.100000 0.000000
vn 0.000000 0.000000 0.100000
vn 0.000000 0.000000 0.100000
vn 0.000000 0.000000 0.100000
vn 0.000000 0.000000 0.100000
vn 0.000000 0.000000 0.100000
vn 0.000000 0.000000 0.100000
vn 0.000000 0.000000 0.100000
vn 0.000000 0.000000 0.100000
vn 0.000000 0.000000 0.100000
vn 0.000000 0.000000 0.100000
vn 0.000000 0.000000 0.100000
vn 0.000000 0.000000 0.100000
vn 0.000000 0.000000 0.100000
vn 0.000000 0.000000 0.100000
vn 0.000000 0.000000 0.100000
vn 0.000000 0.000000 0.100000
vn 0.000000 0.000000 0.100000
vn 0.000000 0.000000 -0.100000
vn 0.000000 0.000000 -0.100000
vn 0.000000 0.000000 -0.100000
vn 0.000000 0.000000 -0.100000
vn 0.000000 0.000000 -0.100000
vn 0.000000 0.000000 -0.100000
vn 0.000000 0.000000 -0.100000
vn 0.000000 0.000000 -0.100000
vn 0.000000 0.000000 -0.100000
vn 0.000000 0.000000 -0.100000
vn 0.000000 0.000000 -0.100000
vn 0.000000 0.000000 -0.100000
vn 0.000000 0.000000 -0.100000
vn 0.000000 0.000000 -0.100000
vn 0.000000 0.000000 -0.100000
vn 0.000000 0.000000 -0.100000
vn 0.000000 0.000000 -0.100000
usemtl 191,191,191
f 30/30/30 29/1/1 28/29/29
f 28/29/29 29/1/1 27/2/2
f 28/29/29 27/2/2 26/28/28
f 26/28/28 27/2/2 25/3/3
f 26/28/28 25/3/3 24/27/27
f 24/27/27 25/3/3 23/4/4
f 24/27/27 23/4/4 22/26/26
f 22/26/26 23/4/4 21/5/5
f 22/26/26 21/5/5 20/25/25
f 20/25/25 21/5/5 19/6/6
f 20/25/25 19/6/6 18/24/24
f 18/24/24 19/6/6 17/7/7
f 18/24/24 17/7/7 16/23/23
f 16/23/23 17/7/7 15/8/8
f 16/23/23 15/8/8 14/22/22
f 14/22/22 15/8/8 13/9/9
f 14/22/22 13/9/9 12/21/21
f 12/21/21 13/9/9 11/10/10
f 12/21/21 11/10/10 10/20/20
f 10/20/20 11/10/10 9/11/11
f 10/20/20 9/11/11 8/19/19
f 8/19/19 9/11/11 7/12/12
f 8/19/19 7/12/12 6/18/18
f 6/18/18 7/12/12 5/13/13
f 6/18/18 5/13/13 4/17/17
f 4/17/17 5/13/13 3/14/14
f 4/17/17 3/14/14 2/16/16
f 2/16/16 3/14/14 1/15/15
f 33/31/31 29/32/32 34/34/34
f 34/34/34 29/32/32 30/33/33
f 31/35/35 33/36/36 32/38/38
f 32/38/38 33/36/36 34/37/37
f 1/39/39 31/40/40 2/42/42
f 2/42/42 31/40/40 32/41/41
f 2/43/43 32/44/44 4/59/59
f 4/59/59 32/44/44 6/58/58
f 6/58/58 32/44/44 8/57/57
f 8/57/57 32/44/44 10/56/56
f 10/56/56 32/44/44 12/55/55
f 12/55/55 32/44/44 14/54/54
f 14/54/54 32/44/44 16/53/53
f 16/53/53 32/44/44 18/52/52
f 18/52/52 32/44/44 20/51/51
f 20/51/51 32/44/44 22/50/50
f 22/50/50 32/44/44 24/49/49
f 24/49/49 32/44/44 34/45/45
f 24/49/49 34/45/45 26/48/48
f 26/48/48 34/45/45 28/47/47
f 28/47/47 34/45/45 30/46/46
f 1/61/61 3/62/62 31/60/60
f 31/60/60 3/62/62 5/63/63
f 31/60/60 5/63/63 7/64/64
f 7/64/64 9/65/65 31/60/60
f 31/60/60 9/65/65 11/66/66
f 31/60/60 11/66/66 13/67/67
f 13/67/67 15/68/68 31/60/60
f 31/60/60 15/68/68 17/69/69
f 31/60/60 17/69/69 19/70/70
f 19/70/70 21/71/71 31/60/60
f 31/60/60 21/71/71 23/72/72
f 31/60/60 23/72/72 33/76/76
f 33/76/76 23/72/72 25/73/73
f 33/76/76 25/73/73 27/74/74
f 27/74/74 29/75/75 33/76/76

# 34 vertices
# 76 texture params
# 76 normals
# 64 facets

# 1 groups
