# WaveFront *.obj file (generated by Autodesk ATF)

mtllib 8 volcano box.mtl

g Solid1

v -6.000000 0.000000 0.000000
v -6.000000 0.000000 10.000000
v -5.199789 0.174301 0.000000
v -5.199789 0.174301 10.000000
v -4.422699 0.432852 0.000000
v -4.422699 0.432852 10.000000
v -3.677572 0.772710 0.000000
v -3.677572 0.772710 10.000000
v -2.972888 1.190009 0.000000
v -2.972888 1.190009 10.000000
v -2.316666 1.679999 0.000000
v -2.316666 1.679999 10.000000
v -1.716373 2.237104 0.000000
v -1.716373 2.237104 10.000000
v -1.178841 2.854986 0.000000
v -1.178841 2.854986 10.000000
v -0.710187 3.526612 0.000000
v -0.710187 3.526612 10.000000
v -0.315744 4.244339 0.000000
v -0.315744 4.244339 10.000000
v 0.000000 5.000000 0.000000
v 0.000000 5.000000 10.000000
v 6.000000 5.000000 0.000000
v 6.000000 5.000000 10.000000
v 7.098323 4.113342 0.000000
v 7.098323 4.113342 10.000000
v 8.249127 3.295952 0.000000
v 8.249127 3.295952 10.000000
v 9.448051 2.550930 0.000000
v 9.448051 2.550930 10.000000
v 10.690550 1.881099 0.000000
v 10.690550 1.881099 10.000000
v 11.971914 1.288999 0.000000
v 11.971914 1.288999 10.000000
v 13.287286 0.776873 0.000000
v 13.287286 0.776873 10.000000
v 14.631679 0.346663 0.000000
v 14.631679 0.346663 10.000000
v 16.000000 0.000000 0.000000
v 16.000000 0.000000 10.000000
vt 0.000000 -1.592505 0.000000
vt 0.000000 -1.674441 0.000000
vt 0.000000 -1.756377 0.000000
vt 0.000000 -1.838314 0.000000
vt 0.000000 -1.920250 0.000000
vt 0.000000 -2.002186 0.000000
vt 0.000000 -2.084122 0.000000
vt 0.000000 -2.166059 0.000000
vt 0.000000 -2.247995 0.000000
vt 0.000000 -2.329931 0.000000
vt 0.000000 -2.411867 0.000000
vt 1.000000 -2.411867 0.000000
vt 1.000000 -2.329931 0.000000
vt 1.000000 -2.247995 0.000000
vt 1.000000 -2.166059 0.000000
vt 1.000000 -2.084122 0.000000
vt 1.000000 -2.002186 0.000000
vt 1.000000 -1.920250 0.000000
vt 1.000000 -1.838314 0.000000
vt 1.000000 -1.756377 0.000000
vt 1.000000 -1.674441 0.000000
vt 1.000000 -1.592505 0.000000
vt 0.000000 0.000000 0.000000
vt 0.600000 0.000000 0.000000
vt 0.600000 1.000000 0.000000
vt 0.000000 1.000000 0.000000
vt 0.000000 -6.073317 0.000000
vt 0.000000 -6.214494 0.000000
vt 0.000000 -6.355671 0.000000
vt 0.000000 -6.496849 0.000000
vt 0.000000 -6.638026 0.000000
vt 0.000000 -6.779203 0.000000
vt 0.000000 -6.920381 0.000000
vt 0.000000 -7.061558 0.000000
vt 0.000000 -7.202736 0.000000
vt 1.000000 -7.202736 0.000000
vt 1.000000 -7.061558 0.000000
vt 1.000000 -6.920381 0.000000
vt 1.000000 -6.779203 0.000000
vt 1.000000 -6.638026 0.000000
vt 1.000000 -6.496849 0.000000
vt 1.000000 -6.355671 0.000000
vt 1.000000 -6.214494 0.000000
vt 1.000000 -6.073317 0.000000
vt 0.000000 0.000000 0.000000
vt 2.200000 0.000000 0.000000
vt 2.200000 1.000000 0.000000
vt 0.000000 1.000000 0.000000
vt -1.100000 -0.250000 0.000000
vt 1.100000 -0.250000 0.000000
vt 0.963168 -0.215334 0.000000
vt 0.828729 -0.172313 0.000000
vt 0.697191 -0.121100 0.000000
vt 0.569055 -0.061890 0.000000
vt 0.444805 0.005093 0.000000
vt 0.324913 0.079595 0.000000
vt 0.209832 0.161334 0.000000
vt 0.100000 0.250000 0.000000
vt -0.500000 0.250000 0.000000
vt -0.531574 0.174434 0.000000
vt -0.571019 0.102661 0.000000
vt -0.617884 0.035499 0.000000
vt -0.671637 -0.026290 0.000000
vt -0.731667 -0.082000 0.000000
vt -0.797289 -0.130999 0.000000
vt -0.867757 -0.172729 0.000000
vt -0.942270 -0.206715 0.000000
vt -1.019979 -0.232570 0.000000
vt -1.100000 -0.250000 0.000000
vt 1.100000 -0.250000 0.000000
vt 1.019979 -0.232570 0.000000
vt 0.942270 -0.206715 0.000000
vt 0.867757 -0.172729 0.000000
vt 0.797289 -0.130999 0.000000
vt 0.731667 -0.082000 0.000000
vt 0.671637 -0.026290 0.000000
vt 0.617884 0.035499 0.000000
vt 0.571019 0.102661 0.000000
vt 0.531574 0.174434 0.000000
vt 0.500000 0.250000 0.000000
vt -0.100000 0.250000 0.000000
vt -0.209832 0.161334 0.000000
vt -0.324913 0.079595 0.000000
vt -0.444805 0.005093 0.000000
vt -0.569055 -0.061890 0.000000
vt -0.697191 -0.121100 0.000000
vt -0.828729 -0.172313 0.000000
vt -0.963168 -0.215334 0.000000
vn -0.094194 0.033577 0.000000
vn -0.090082 0.043420 0.000000
vn -0.084944 0.052769 0.000000
vn -0.078839 0.061517 0.000000
vn -0.071838 0.069566 0.000000
vn -0.064018 0.076822 0.000000
vn -0.055471 0.083205 0.000000
vn -0.046292 0.088640 0.000000
vn -0.036586 0.093067 0.000000
vn -0.026464 0.096435 0.000000
vn -0.016041 0.098705 0.000000
vn -0.016041 0.098705 0.000000
vn -0.026464 0.096435 0.000000
vn -0.036586 0.093067 0.000000
vn -0.046292 0.088640 0.000000
vn -0.055471 0.083205 0.000000
vn -0.064018 0.076822 0.000000
vn -0.071838 0.069566 0.000000
vn -0.078839 0.061517 0.000000
vn -0.084944 0.052769 0.000000
vn -0.090082 0.043420 0.000000
vn -0.094194 0.033577 0.000000
vn 0.000000 0.100000 0.000000
vn 0.000000 0.100000 0.000000
vn 0.000000 0.100000 0.000000
vn 0.000000 0.100000 0.000000
vn 0.021563 0.097647 0.000000
vn 0.027531 0.096135 0.000000
vn 0.033395 0.094259 0.000000
vn 0.039132 0.092025 0.000000
vn 0.044721 0.089443 0.000000
vn 0.050141 0.086521 0.000000
vn 0.055370 0.083272 0.000000
vn 0.060389 0.079706 0.000000
vn 0.065180 0.075839 0.000000
vn 0.065180 0.075839 0.000000
vn 0.060389 0.079706 0.000000
vn 0.055370 0.083272 0.000000
vn 0.050141 0.086521 0.000000
vn 0.044721 0.089443 0.000000
vn 0.039132 0.092025 0.000000
vn 0.033395 0.094259 0.000000
vn 0.027531 0.096135 0.000000
vn 0.021563 0.097647 0.000000
vn 0.000000 -0.100000 0.000000
vn 0.000000 -0.100000 0.000000
vn 0.000000 -0.100000 0.000000
vn 0.000000 -0.100000 0.000000
vn 0.000000 0.000000 0.100000
vn 0.000000 0.000000 0.100000
vn 0.000000 0.000000 0.100000
vn 0.000000 0.000000 0.100000
vn 0.000000 0.000000 0.100000
vn 0.000000 0.000000 0.100000
vn 0.000000 0.000000 0.100000
vn 0.000000 0.000000 0.100000
vn 0.000000 0.000000 0.100000
vn 0.000000 0.000000 0.100000
vn 0.000000 0.000000 0.100000
vn 0.000000 0.000000 0.100000
vn 0.000000 0.000000 0.100000
vn 0.000000 0.000000 0.100000
vn 0.000000 0.000000 0.100000
vn 0.000000 0.000000 0.100000
vn 0.000000 0.000000 0.100000
vn 0.000000 0.000000 0.100000
vn 0.000000 0.000000 0.100000
vn 0.000000 0.000000 0.100000
vn 0.000000 0.000000 -0.100000
vn 0.000000 0.000000 -0.100000
vn 0.000000 0.000000 -0.100000
vn 0.000000 0.000000 -0.100000
vn 0.000000 0.000000 -0.100000
vn 0.000000 0.000000 -0.100000
vn 0.000000 0.000000 -0.100000
vn 0.000000 0.000000 -0.100000
vn 0.000000 0.000000 -0.100000
vn 0.000000 0.000000 -0.100000
vn 0.000000 0.000000 -0.100000
vn 0.000000 0.000000 -0.100000
vn 0.000000 0.000000 -0.100000
vn 0.000000 0.000000 -0.100000
vn 0.000000 0.000000 -0.100000
vn 0.000000 0.000000 -0.100000
vn 0.000000 0.000000 -0.100000
vn 0.000000 0.000000 -0.100000
vn 0.000000 0.000000 -0.100000
vn 0.000000 0.000000 -0.100000
usemtl 191,191,191
f 22/22/22 21/1/1 20/21/21
f 20/21/21 21/1/1 19/2/2
f 20/21/21 19/2/2 18/20/20
f 18/20/20 19/2/2 17/3/3
f 18/20/20 17/3/3 16/19/19
f 16/19/19 17/3/3 15/4/4
f 16/19/19 15/4/4 14/18/18
f 14/18/18 15/4/4 13/5/5
f 14/18/18 13/5/5 12/17/17
f 12/17/17 13/5/5 11/6/6
f 12/17/17 11/6/6 10/16/16
f 10/16/16 11/6/6 9/7/7
f 10/16/16 9/7/7 8/15/15
f 8/15/15 9/7/7 7/8/8
f 8/15/15 7/8/8 6/14/14
f 6/14/14 7/8/8 5/9/9
f 6/14/14 5/9/9 4/13/13
f 4/13/13 5/9/9 3/10/10
f 4/13/13 3/10/10 2/12/12
f 2/12/12 3/10/10 1/11/11
f 23/23/23 21/24/24 24/26/26
f 24/26/26 21/24/24 22/25/25
f 40/44/44 39/27/27 38/43/43
f 38/43/43 39/27/27 37/28/28
f 38/43/43 37/28/28 36/42/42
f 36/42/42 37/28/28 35/29/29
f 36/42/42 35/29/29 34/41/41
f 34/41/41 35/29/29 33/30/30
f 34/41/41 33/30/30 32/40/40
f 32/40/40 33/30/30 31/31/31
f 32/40/40 31/31/31 30/39/39
f 30/39/39 31/31/31 29/32/32
f 30/39/39 29/32/32 28/38/38
f 28/38/38 29/32/32 27/33/33
f 28/38/38 27/33/33 26/37/37
f 26/37/37 27/33/33 25/34/34
f 26/37/37 25/34/34 24/36/36
f 24/36/36 25/34/34 23/35/35
f 1/45/45 39/46/46 2/48/48
f 2/48/48 39/46/46 40/47/47
f 2/49/49 40/50/50 4/68/68
f 4/68/68 40/50/50 38/51/51
f 4/68/68 38/51/51 6/67/67
f 6/67/67 38/51/51 36/52/52
f 6/67/67 36/52/52 8/66/66
f 8/66/66 36/52/52 34/53/53
f 8/66/66 34/53/53 10/65/65
f 10/65/65 34/53/53 32/54/54
f 10/65/65 32/54/54 12/64/64
f 12/64/64 32/54/54 30/55/55
f 12/64/64 30/55/55 14/63/63
f 14/63/63 30/55/55 28/56/56
f 14/63/63 28/56/56 16/62/62
f 16/62/62 28/56/56 26/57/57
f 16/62/62 26/57/57 18/61/61
f 18/61/61 26/57/57 20/60/60
f 20/60/60 26/57/57 24/58/58
f 20/60/60 24/58/58 22/59/59
f 1/70/70 3/71/71 39/69/69
f 39/69/69 3/71/71 37/88/88
f 37/88/88 3/71/71 5/72/72
f 37/88/88 5/72/72 35/87/87
f 35/87/87 5/72/72 7/73/73
f 35/87/87 7/73/73 33/86/86
f 33/86/86 7/73/73 9/74/74
f 33/86/86 9/74/74 31/85/85
f 31/85/85 9/74/74 11/75/75
f 31/85/85 11/75/75 29/84/84
f 29/84/84 11/75/75 13/76/76
f 29/84/84 13/76/76 27/83/83
f 27/83/83 13/76/76 15/77/77
f 27/83/83 15/77/77 25/82/82
f 25/82/82 15/77/77 17/78/78
f 25/82/82 17/78/78 19/79/79
f 21/80/80 23/81/81 19/79/79
f 19/79/79 23/81/81 25/82/82

# 40 vertices
# 88 texture params
# 88 normals
# 76 facets

# 1 groups
