# WaveFront *.obj file (generated by Autodesk ATF)

mtllib 14 steep bank.mtl

g Solid1

v -8.699722 0.000000 0.000000
v -8.699722 0.000000 10.000000
v -8.210227 0.087247 0.000000
v -8.210227 0.087247 10.000000
v -7.732310 0.224406 0.000000
v -7.732310 0.224406 10.000000
v -7.271046 0.410021 0.000000
v -7.271046 0.410021 10.000000
v -6.831333 0.642120 0.000000
v -6.831333 0.642120 10.000000
v -6.417841 0.918240 0.000000
v -6.417841 0.918240 10.000000
v -6.034960 1.235446 0.000000
v -6.034960 1.235446 10.000000
v -5.686758 1.590372 0.000000
v -5.686758 1.590372 10.000000
v -5.376930 1.979248 0.000000
v -5.376930 1.979248 10.000000
v -3.000000 6.000000 0.000000
v -3.000000 6.000000 10.000000
v 0.000000 0.000000 0.000000
v 0.000000 0.000000 10.000000
v 0.000000 6.000000 0.000000
v 0.000000 6.000000 10.000000
vt 0.000000 0.000000 0.000000
vt 0.869972 0.000000 0.000000
vt 0.869972 1.000000 0.000000
vt 0.000000 1.000000 0.000000
vt 0.000000 -1.117858 0.000000
vt 0.000000 -1.167601 0.000000
vt 0.000000 -1.217344 0.000000
vt 0.000000 -1.267087 0.000000
vt 0.000000 -1.316830 0.000000
vt 0.000000 -1.366573 0.000000
vt 0.000000 -1.416316 0.000000
vt 0.000000 -1.466059 0.000000
vt 0.000000 -1.515802 0.000000
vt 1.000000 -1.515802 0.000000
vt 1.000000 -1.466059 0.000000
vt 1.000000 -1.416316 0.000000
vt 1.000000 -1.366573 0.000000
vt 1.000000 -1.316830 0.000000
vt 1.000000 -1.267087 0.000000
vt 1.000000 -1.217344 0.000000
vt 1.000000 -1.167601 0.000000
vt 1.000000 -1.117858 0.000000
vt 0.000000 0.000000 0.000000
vt 0.467079 0.000000 0.000000
vt 0.467079 1.000000 0.000000
vt 0.000000 1.000000 0.000000
vt 0.000000 0.000000 0.000000
vt 0.300000 0.000000 0.000000
vt 0.300000 1.000000 0.000000
vt 0.000000 1.000000 0.000000
vt 0.000000 0.000000 0.000000
vt 0.600000 0.000000 0.000000
vt 0.600000 1.000000 0.000000
vt 0.000000 1.000000 0.000000
vt 0.434986 -0.300000 0.000000
vt 0.434986 0.300000 0.000000
vt 0.134986 0.300000 0.000000
vt -0.102707 -0.102075 0.000000
vt -0.133690 -0.140963 0.000000
vt -0.168510 -0.176455 0.000000
vt -0.206798 -0.208176 0.000000
vt -0.248147 -0.235788 0.000000
vt -0.292118 -0.258998 0.000000
vt -0.338245 -0.277559 0.000000
vt -0.386037 -0.291275 0.000000
vt -0.434986 -0.300000 0.000000
vt -0.434986 0.300000 0.000000
vt -0.434986 -0.300000 0.000000
vt 0.434986 -0.300000 0.000000
vt 0.386037 -0.291275 0.000000
vt 0.338245 -0.277559 0.000000
vt 0.292118 -0.258998 0.000000
vt 0.248147 -0.235788 0.000000
vt 0.206798 -0.208176 0.000000
vt 0.168510 -0.176455 0.000000
vt 0.133690 -0.140963 0.000000
vt 0.102707 -0.102075 0.000000
vt -0.134986 0.300000 0.000000
vn 0.000000 -0.100000 0.000000
vn 0.000000 -0.100000 0.000000
vn 0.000000 -0.100000 0.000000
vn 0.000000 -0.100000 0.000000
vn -0.081318 0.058201 0.000000
vn -0.074897 0.066260 0.000000
vn -0.067680 0.073616 0.000000
vn -0.059745 0.080191 0.000000
vn -0.051175 0.085913 0.000000
vn -0.042062 0.090724 0.000000
vn -0.032502 0.094571 0.000000
vn -0.022597 0.097414 0.000000
vn -0.012451 0.099222 0.000000
vn -0.012451 0.099222 0.000000
vn -0.022597 0.097414 0.000000
vn -0.032502 0.094571 0.000000
vn -0.042062 0.090724 0.000000
vn -0.051175 0.085913 0.000000
vn -0.059745 0.080191 0.000000
vn -0.067680 0.073616 0.000000
vn -0.074897 0.066260 0.000000
vn -0.081318 0.058201 0.000000
vn -0.086083 0.050889 0.000000
vn -0.086083 0.050889 0.000000
vn -0.086083 0.050889 0.000000
vn -0.086083 0.050889 0.000000
vn 0.000000 0.100000 0.000000
vn 0.000000 0.100000 0.000000
vn 0.000000 0.100000 0.000000
vn 0.000000 0.100000 0.000000
vn 0.100000 0.000000 0.000000
vn 0.100000 0.000000 0.000000
vn 0.100000 0.000000 0.000000
vn 0.100000 0.000000 0.000000
vn 0.000000 0.000000 0.100000
vn 0.000000 0.000000 0.100000
vn 0.000000 0.000000 0.100000
vn 0.000000 0.000000 0.100000
vn 0.000000 0.000000 0.100000
vn 0.000000 0.000000 0.100000
vn 0.000000 0.000000 0.100000
vn 0.000000 0.000000 0.100000
vn 0.000000 0.000000 0.100000
vn 0.000000 0.000000 0.100000
vn 0.000000 0.000000 0.100000
vn 0.000000 0.000000 0.100000
vn 0.000000 0.000000 -0.100000
vn 0.000000 0.000000 -0.100000
vn 0.000000 0.000000 -0.100000
vn 0.000000 0.000000 -0.100000
vn 0.000000 0.000000 -0.100000
vn 0.000000 0.000000 -0.100000
vn 0.000000 0.000000 -0.100000
vn 0.000000 0.000000 -0.100000
vn 0.000000 0.000000 -0.100000
vn 0.000000 0.000000 -0.100000
vn 0.000000 0.000000 -0.100000
vn 0.000000 0.000000 -0.100000
usemtl 191,191,191
f 1/1/1 21/2/2 2/4/4
f 2/4/4 21/2/2 22/3/3
f 18/22/22 17/5/5 16/21/21
f 16/21/21 17/5/5 15/6/6
f 16/21/21 15/6/6 14/20/20
f 14/20/20 15/6/6 13/7/7
f 14/20/20 13/7/7 12/19/19
f 12/19/19 13/7/7 11/8/8
f 12/19/19 11/8/8 10/18/18
f 10/18/18 11/8/8 9/9/9
f 10/18/18 9/9/9 8/17/17
f 8/17/17 9/9/9 7/10/10
f 8/17/17 7/10/10 6/16/16
f 6/16/16 7/10/10 5/11/11
f 6/16/16 5/11/11 4/15/15
f 4/15/15 5/11/11 3/12/12
f 4/15/15 3/12/12 2/14/14
f 2/14/14 3/12/12 1/13/13
f 19/23/23 17/24/24 20/26/26
f 20/26/26 17/24/24 18/25/25
f 23/27/27 19/28/28 24/30/30
f 24/30/30 19/28/28 20/29/29
f 21/31/31 23/32/32 22/34/34
f 22/34/34 23/32/32 24/33/33
f 24/36/36 20/37/37 22/35/35
f 22/35/35 20/37/37 18/38/38
f 22/35/35 18/38/38 16/39/39
f 16/39/39 14/40/40 22/35/35
f 22/35/35 14/40/40 12/41/41
f 22/35/35 12/41/41 10/42/42
f 10/42/42 8/43/43 22/35/35
f 22/35/35 8/43/43 6/44/44
f 22/35/35 6/44/44 4/45/45
f 4/45/45 2/46/46 22/35/35
f 23/47/47 21/48/48 19/58/58
f 19/58/58 21/48/48 17/57/57
f 17/57/57 21/48/48 15/56/56
f 15/56/56 21/48/48 13/55/55
f 13/55/55 21/48/48 11/54/54
f 11/54/54 21/48/48 9/53/53
f 9/53/53 21/48/48 7/52/52
f 7/52/52 21/48/48 5/51/51
f 5/51/51 21/48/48 3/50/50
f 3/50/50 21/48/48 1/49/49

# 24 vertices
# 58 texture params
# 58 normals
# 44 facets

# 1 groups
