# WaveFront *.obj file (generated by Autodesk ATF)

mtllib 7 driveway.mtl

g Solid1

v -19.000000 0.000000 0.000000
v -19.000000 0.000000 10.000000
v -17.861732 0.250254 0.000000
v -17.861732 0.250254 10.000000
v -16.743021 0.577003 0.000000
v -16.743021 0.577003 10.000000
v -15.649000 0.978747 0.000000
v -15.649000 0.978747 10.000000
v -10.000000 3.000000 0.000000
v -10.000000 3.000000 10.000000
v 0.000000 3.000000 0.000000
v 0.000000 3.000000 10.000000
v 5.649295 0.978747 0.000000
v 5.649295 0.978747 10.000000
v 6.743920 0.579230 0.000000
v 6.743920 0.579230 10.000000
v 7.862434 0.252510 0.000000
v 7.862434 0.252510 10.000000
v 9.000000 0.000000 0.000000
v 9.000000 0.000000 10.000000
vt 0.000000 0.000000 0.000000
vt 2.800000 0.000000 0.000000
vt 2.800000 1.000000 0.000000
vt 0.000000 1.000000 0.000000
vt 0.000000 -5.054811 0.000000
vt 0.000000 -5.171379 0.000000
vt 0.000000 -5.287947 0.000000
vt 0.000000 -5.404514 0.000000
vt 1.000000 -5.404514 0.000000
vt 1.000000 -5.287947 0.000000
vt 1.000000 -5.171379 0.000000
vt 1.000000 -5.054811 0.000000
vt 0.000000 0.000000 0.000000
vt 0.599972 0.000000 0.000000
vt 0.599972 1.000000 0.000000
vt 0.000000 1.000000 0.000000
vt 0.000000 0.000000 0.000000
vt 1.000000 0.000000 0.000000
vt 1.000000 1.000000 0.000000
vt 0.000000 1.000000 0.000000
vt 0.000000 0.000000 0.000000
vt 0.600000 0.000000 0.000000
vt 0.600000 1.000000 0.000000
vt 0.000000 1.000000 0.000000
vt 0.000000 -5.217937 0.000000
vt 0.000000 -5.334484 0.000000
vt 0.000000 -5.451030 0.000000
vt 0.000000 -5.567577 0.000000
vt 1.000000 -5.567577 0.000000
vt 1.000000 -5.451030 0.000000
vt 1.000000 -5.334484 0.000000
vt 1.000000 -5.217937 0.000000
vt 1.400000 -0.150000 0.000000
vt 1.286243 -0.124749 0.000000
vt 1.174392 -0.092077 0.000000
vt 1.064929 -0.052125 0.000000
vt 0.500000 0.150000 0.000000
vt -0.500000 0.150000 0.000000
vt -1.064900 -0.052125 0.000000
vt -1.174302 -0.092300 0.000000
vt -1.286173 -0.124975 0.000000
vt -1.400000 -0.150000 0.000000
vt -1.064929 -0.052125 0.000000
vt -1.174392 -0.092077 0.000000
vt -1.286243 -0.124749 0.000000
vt -1.400000 -0.150000 0.000000
vt 1.400000 -0.150000 0.000000
vt 1.286173 -0.124975 0.000000
vt 1.174302 -0.092300 0.000000
vt 1.064900 -0.052125 0.000000
vt 0.500000 0.150000 0.000000
vt -0.500000 0.150000 0.000000
vn 0.000000 -0.100000 0.000000
vn 0.000000 -0.100000 0.000000
vn 0.000000 -0.100000 0.000000
vn 0.000000 -0.100000 0.000000
vn -0.037631 0.092649 0.000000
vn -0.031272 0.094985 0.000000
vn -0.024769 0.096884 0.000000
vn -0.018152 0.098339 0.000000
vn -0.018152 0.098339 0.000000
vn -0.024769 0.096884 0.000000
vn -0.031272 0.094985 0.000000
vn -0.037631 0.092649 0.000000
vn -0.033689 0.094154 0.000000
vn -0.033689 0.094154 0.000000
vn -0.033689 0.094154 0.000000
vn -0.033689 0.094154 0.000000
vn 0.000000 0.100000 0.000000
vn 0.000000 0.100000 0.000000
vn 0.000000 0.100000 0.000000
vn 0.000000 0.100000 0.000000
vn 0.033688 0.094155 0.000000
vn 0.033688 0.094155 0.000000
vn 0.033688 0.094155 0.000000
vn 0.033688 0.094155 0.000000
vn 0.018449 0.098283 0.000000
vn 0.024868 0.096859 0.000000
vn 0.031179 0.095015 0.000000
vn 0.037356 0.092761 0.000000
vn 0.037356 0.092761 0.000000
vn 0.031179 0.095015 0.000000
vn 0.024868 0.096859 0.000000
vn 0.018449 0.098283 0.000000
vn 0.000000 0.000000 0.100000
vn 0.000000 0.000000 0.100000
vn 0.000000 0.000000 0.100000
vn 0.000000 0.000000 0.100000
vn 0.000000 0.000000 0.100000
vn 0.000000 0.000000 0.100000
vn 0.000000 0.000000 0.100000
vn 0.000000 0.000000 0.100000
vn 0.000000 0.000000 0.100000
vn 0.000000 0.000000 0.100000
vn 0.000000 0.000000 -0.100000
vn 0.000000 0.000000 -0.100000
vn 0.000000 0.000000 -0.100000
vn 0.000000 0.000000 -0.100000
vn 0.000000 0.000000 -0.100000
vn 0.000000 0.000000 -0.100000
vn 0.000000 0.000000 -0.100000
vn 0.000000 0.000000 -0.100000
vn 0.000000 0.000000 -0.100000
vn 0.000000 0.000000 -0.100000
usemtl 191,191,191
f 1/1/1 19/2/2 2/4/4
f 2/4/4 19/2/2 20/3/3
f 8/12/12 7/5/5 6/11/11
f 6/11/11 7/5/5 5/6/6
f 6/11/11 5/6/6 4/10/10
f 4/10/10 5/6/6 3/7/7
f 4/10/10 3/7/7 2/9/9
f 2/9/9 3/7/7 1/8/8
f 9/13/13 7/14/14 10/16/16
f 10/16/16 7/14/14 8/15/15
f 11/17/17 9/18/18 12/20/20
f 12/20/20 9/18/18 10/19/19
f 13/21/21 11/22/22 14/24/24
f 14/24/24 11/22/22 12/23/23
f 20/32/32 19/25/25 18/31/31
f 18/31/31 19/25/25 17/26/26
f 18/31/31 17/26/26 16/30/30
f 16/30/30 17/26/26 15/27/27
f 16/30/30 15/27/27 14/29/29
f 14/29/29 15/27/27 13/28/28
f 2/42/42 20/33/33 4/41/41
f 4/41/41 20/33/33 18/34/34
f 4/41/41 18/34/34 6/40/40
f 6/40/40 18/34/34 16/35/35
f 6/40/40 16/35/35 14/36/36
f 6/40/40 14/36/36 8/39/39
f 8/39/39 14/36/36 12/37/37
f 8/39/39 12/37/37 10/38/38
f 15/44/44 5/49/49 13/43/43
f 13/43/43 5/49/49 7/50/50
f 13/43/43 7/50/50 11/52/52
f 11/52/52 7/50/50 9/51/51
f 15/44/44 17/45/45 5/49/49
f 5/49/49 17/45/45 3/48/48
f 3/48/48 17/45/45 19/46/46
f 3/48/48 19/46/46 1/47/47

# 20 vertices
# 52 texture params
# 52 normals
# 36 facets

# 1 groups
