# WaveFront *.obj file (generated by Autodesk ATF)

mtllib 9 quarter 8mil.mtl

g Solid1

v -8.000000 0.000000 0.000000
v -8.000000 0.000000 10.000000
v -7.267376 0.050016 0.000000
v -7.267376 0.050016 10.000000
v -6.542172 0.165426 0.000000
v -6.542172 0.165426 10.000000
v -5.830215 0.345303 0.000000
v -5.830215 0.345303 10.000000
v -5.137222 0.588202 0.000000
v -5.137222 0.588202 10.000000
v -4.468760 0.892173 0.000000
v -4.468760 0.892173 10.000000
v -3.830198 1.254772 0.000000
v -3.830198 1.254772 10.000000
v -3.226666 1.673089 0.000000
v -3.226666 1.673089 10.000000
v -2.663012 2.143762 0.000000
v -2.663012 2.143762 10.000000
v -2.143762 2.663012 0.000000
v -2.143762 2.663012 10.000000
v -1.673089 3.226666 0.000000
v -1.673089 3.226666 10.000000
v -1.254772 3.830198 0.000000
v -1.254772 3.830198 10.000000
v -0.892173 4.468760 0.000000
v -0.892173 4.468760 10.000000
v -0.588202 5.137222 0.000000
v -0.588202 5.137222 10.000000
v -0.345303 5.830215 0.000000
v -0.345303 5.830215 10.000000
v -0.165426 6.542172 0.000000
v -0.165426 6.542172 10.000000
v -0.050016 7.267376 0.000000
v -0.050016 7.267376 10.000000
v 0.000000 8.000000 0.000000
v 0.000000 8.000000 10.000000
v 5.000000 0.000000 0.000000
v 5.000000 0.000000 10.000000
v 5.000000 8.000000 0.000000
v 5.000000 8.000000 10.000000
vt 0.000000 0.000000 0.000000
vt 0.800000 0.000000 0.000000
vt 0.800000 1.000000 0.000000
vt 0.000000 1.000000 0.000000
vt 0.000000 0.000000 0.000000
vt 1.300000 0.000000 0.000000
vt 1.300000 1.000000 0.000000
vt 0.000000 1.000000 0.000000
vt 0.000000 -1.325261 0.000000
vt 0.000000 -1.398719 0.000000
vt 0.000000 -1.472176 0.000000
vt 0.000000 -1.545634 0.000000
vt 0.000000 -1.619092 0.000000
vt 0.000000 -1.692549 0.000000
vt 0.000000 -1.766006 0.000000
vt 0.000000 -1.839464 0.000000
vt 0.000000 -1.912922 0.000000
vt 0.000000 -1.986379 0.000000
vt 0.000000 -2.059837 0.000000
vt 0.000000 -2.133294 0.000000
vt 0.000000 -2.206752 0.000000
vt 0.000000 -2.280209 0.000000
vt 0.000000 -2.353667 0.000000
vt 0.000000 -2.427124 0.000000
vt 0.000000 -2.500582 0.000000
vt 0.000000 -2.574039 0.000000
vt 1.000000 -2.574039 0.000000
vt 1.000000 -2.500582 0.000000
vt 1.000000 -2.427124 0.000000
vt 1.000000 -2.353667 0.000000
vt 1.000000 -2.280209 0.000000
vt 1.000000 -2.206752 0.000000
vt 1.000000 -2.133294 0.000000
vt 1.000000 -2.059837 0.000000
vt 1.000000 -1.986379 0.000000
vt 1.000000 -1.912922 0.000000
vt 1.000000 -1.839464 0.000000
vt 1.000000 -1.766006 0.000000
vt 1.000000 -1.692549 0.000000
vt 1.000000 -1.619092 0.000000
vt 1.000000 -1.545634 0.000000
vt 1.000000 -1.472176 0.000000
vt 1.000000 -1.398719 0.000000
vt 1.000000 -1.325261 0.000000
vt 0.000000 0.000000 0.000000
vt 0.500000 0.000000 0.000000
vt 0.500000 1.000000 0.000000
vt 0.000000 1.000000 0.000000
vt 0.650000 0.400000 0.000000
vt 0.150000 0.400000 0.000000
vt 0.144998 0.326738 0.000000
vt 0.133457 0.254217 0.000000
vt 0.115470 0.183021 0.000000
vt 0.091180 0.113722 0.000000
vt 0.060783 0.046876 0.000000
vt 0.024523 -0.016980 0.000000
vt -0.017309 -0.077333 0.000000
vt -0.064376 -0.133699 0.000000
vt -0.116301 -0.185624 0.000000
vt -0.172667 -0.232691 0.000000
vt -0.233020 -0.274523 0.000000
vt -0.296876 -0.310783 0.000000
vt -0.363722 -0.341180 0.000000
vt -0.433021 -0.365470 0.000000
vt -0.504217 -0.383457 0.000000
vt -0.576738 -0.394998 0.000000
vt -0.650000 -0.400000 0.000000
vt 0.650000 -0.400000 0.000000
vt -0.150000 0.400000 0.000000
vt -0.650000 0.400000 0.000000
vt -0.650000 -0.400000 0.000000
vt 0.650000 -0.400000 0.000000
vt 0.576738 -0.394998 0.000000
vt 0.504217 -0.383457 0.000000
vt 0.433021 -0.365470 0.000000
vt 0.363722 -0.341180 0.000000
vt 0.296876 -0.310783 0.000000
vt 0.233020 -0.274523 0.000000
vt 0.172667 -0.232691 0.000000
vt 0.116301 -0.185624 0.000000
vt 0.064376 -0.133699 0.000000
vt 0.017309 -0.077333 0.000000
vt -0.024523 -0.016980 0.000000
vt -0.060783 0.046876 0.000000
vt -0.091180 0.113722 0.000000
vt -0.115470 0.183021 0.000000
vt -0.133457 0.254217 0.000000
vt -0.144998 0.326738 0.000000
vn 0.100000 0.000000 0.000000
vn 0.100000 0.000000 0.000000
vn 0.100000 0.000000 0.000000
vn 0.100000 0.000000 0.000000
vn 0.000000 -0.100000 0.000000
vn 0.000000 -0.100000 0.000000
vn 0.000000 -0.100000 0.000000
vn 0.000000 -0.100000 0.000000
vn -0.099973 0.002333 0.000000
vn -0.099362 0.011275 0.000000
vn -0.097954 0.020126 0.000000
vn -0.095758 0.028816 0.000000
vn -0.092794 0.037273 0.000000
vn -0.089084 0.045432 0.000000
vn -0.084658 0.053226 0.000000
vn -0.079553 0.060592 0.000000
vn -0.073808 0.067471 0.000000
vn -0.067471 0.073808 0.000000
vn -0.060592 0.079553 0.000000
vn -0.053226 0.084658 0.000000
vn -0.045432 0.089084 0.000000
vn -0.037273 0.092794 0.000000
vn -0.028816 0.095758 0.000000
vn -0.020126 0.097954 0.000000
vn -0.011275 0.099362 0.000000
vn -0.002333 0.099973 0.000000
vn -0.002333 0.099973 0.000000
vn -0.011275 0.099362 0.000000
vn -0.020126 0.097954 0.000000
vn -0.028816 0.095758 0.000000
vn -0.037273 0.092794 0.000000
vn -0.045432 0.089084 0.000000
vn -0.053226 0.084658 0.000000
vn -0.060592 0.079553 0.000000
vn -0.067471 0.073808 0.000000
vn -0.073808 0.067471 0.000000
vn -0.079553 0.060592 0.000000
vn -0.084658 0.053226 0.000000
vn -0.089084 0.045432 0.000000
vn -0.092794 0.037273 0.000000
vn -0.095758 0.028816 0.000000
vn -0.097954 0.020126 0.000000
vn -0.099362 0.011275 0.000000
vn -0.099973 0.002333 0.000000
vn 0.000000 0.100000 0.000000
vn 0.000000 0.100000 0.000000
vn 0.000000 0.100000 0.000000
vn 0.000000 0.100000 0.000000
vn 0.000000 0.000000 0.100000
vn 0.000000 0.000000 0.100000
vn 0.000000 0.000000 0.100000
vn 0.000000 0.000000 0.100000
vn 0.000000 0.000000 0.100000
vn 0.000000 0.000000 0.100000
vn 0.000000 0.000000 0.100000
vn 0.000000 0.000000 0.100000
vn 0.000000 0.000000 0.100000
vn 0.000000 0.000000 0.100000
vn 0.000000 0.000000 0.100000
vn 0.000000 0.000000 0.100000
vn 0.000000 0.000000 0.100000
vn 0.000000 0.000000 0.100000
vn 0.000000 0.000000 0.100000
vn 0.000000 0.000000 0.100000
vn 0.000000 0.000000 0.100000
vn 0.000000 0.000000 0.100000
vn 0.000000 0.000000 0.100000
vn 0.000000 0.000000 0.100000
vn 0.000000 0.000000 -0.100000
vn 0.000000 0.000000 -0.100000
vn 0.000000 0.000000 -0.100000
vn 0.000000 0.000000 -0.100000
vn 0.000000 0.000000 -0.100000
vn 0.000000 0.000000 -0.100000
vn 0.000000 0.000000 -0.100000
vn 0.000000 0.000000 -0.100000
vn 0.000000 0.000000 -0.100000
vn 0.000000 0.000000 -0.100000
vn 0.000000 0.000000 -0.100000
vn 0.000000 0.000000 -0.100000
vn 0.000000 0.000000 -0.100000
vn 0.000000 0.000000 -0.100000
vn 0.000000 0.000000 -0.100000
vn 0.000000 0.000000 -0.100000
vn 0.000000 0.000000 -0.100000
vn 0.000000 0.000000 -0.100000
vn 0.000000 0.000000 -0.100000
vn 0.000000 0.000000 -0.100000
usemtl 191,191,191
f 37/1/1 39/2/2 38/4/4
f 38/4/4 39/2/2 40/3/3
f 1/5/5 37/6/6 2/8/8
f 2/8/8 37/6/6 38/7/7
f 36/44/44 35/9/9 34/43/43
f 34/43/43 35/9/9 33/10/10
f 34/43/43 33/10/10 32/42/42
f 32/42/42 33/10/10 31/11/11
f 32/42/42 31/11/11 30/41/41
f 30/41/41 31/11/11 29/12/12
f 30/41/41 29/12/12 28/40/40
f 28/40/40 29/12/12 27/13/13
f 28/40/40 27/13/13 26/39/39
f 26/39/39 27/13/13 25/14/14
f 26/39/39 25/14/14 24/38/38
f 24/38/38 25/14/14 23/15/15
f 24/38/38 23/15/15 22/37/37
f 22/37/37 23/15/15 21/16/16
f 22/37/37 21/16/16 20/36/36
f 20/36/36 21/16/16 19/17/17
f 20/36/36 19/17/17 18/35/35
f 18/35/35 19/17/17 17/18/18
f 18/35/35 17/18/18 16/34/34
f 16/34/34 17/18/18 15/19/19
f 16/34/34 15/19/19 14/33/33
f 14/33/33 15/19/19 13/20/20
f 14/33/33 13/20/20 12/32/32
f 12/32/32 13/20/20 11/21/21
f 12/32/32 11/21/21 10/31/31
f 10/31/31 11/21/21 9/22/22
f 10/31/31 9/22/22 8/30/30
f 8/30/30 9/22/22 7/23/23
f 8/30/30 7/23/23 6/29/29
f 6/29/29 7/23/23 5/24/24
f 6/29/29 5/24/24 4/28/28
f 4/28/28 5/24/24 3/25/25
f 4/28/28 3/25/25 2/27/27
f 2/27/27 3/25/25 1/26/26
f 39/45/45 35/46/46 40/48/48
f 40/48/48 35/46/46 36/47/47
f 36/50/50 34/51/51 40/49/49
f 40/49/49 34/51/51 32/52/52
f 40/49/49 32/52/52 30/53/53
f 30/53/53 28/54/54 40/49/49
f 40/49/49 28/54/54 38/68/68
f 38/68/68 28/54/54 26/55/55
f 38/68/68 26/55/55 24/56/56
f 24/56/56 22/57/57 38/68/68
f 38/68/68 22/57/57 20/58/58
f 38/68/68 20/58/58 18/59/59
f 18/59/59 16/60/60 38/68/68
f 38/68/68 16/60/60 14/61/61
f 38/68/68 14/61/61 12/62/62
f 12/62/62 10/63/63 38/68/68
f 38/68/68 10/63/63 8/64/64
f 38/68/68 8/64/64 6/65/65
f 6/65/65 4/66/66 38/68/68
f 38/68/68 4/66/66 2/67/67
f 35/69/69 39/70/70 33/88/88
f 33/88/88 39/70/70 31/87/87
f 31/87/87 39/70/70 29/86/86
f 29/86/86 39/70/70 27/85/85
f 27/85/85 39/70/70 37/71/71
f 27/85/85 37/71/71 25/84/84
f 25/84/84 37/71/71 23/83/83
f 23/83/83 37/71/71 21/82/82
f 21/82/82 37/71/71 19/81/81
f 19/81/81 37/71/71 17/80/80
f 17/80/80 37/71/71 15/79/79
f 15/79/79 37/71/71 13/78/78
f 13/78/78 37/71/71 11/77/77
f 11/77/77 37/71/71 9/76/76
f 9/76/76 37/71/71 7/75/75
f 7/75/75 37/71/71 5/74/74
f 5/74/74 37/71/71 3/73/73
f 3/73/73 37/71/71 1/72/72

# 40 vertices
# 88 texture params
# 88 normals
# 76 facets

# 1 groups
